<?xml version="1.0" encoding="utf-8"?>
<svg xmlns="http://www.w3.org/2000/svg" width="42" height="24" viewBox="20 10 42 24" fill="none">
<g clip-path="url(#clip0_2708_28)">
<path d="M59.2866 12.6484L59.2866 10.0084L61.9098 10.0084L61.9098 12.6484L59.2866 12.6484Z" fill="#C3E600"/>
<path d="M56.6634 12.6484L56.6634 10.0084L59.2866 10.0084L59.2866 12.6484L56.6634 12.6484Z" fill="#E50AAE"/>
<path d="M59.2866 15.2884L59.2866 12.6484L61.9098 12.6484L61.9098 15.2884L59.2866 15.2884Z" fill="#36D955"/>
<path d="M38.4821 33.8891H42.5928V31.4H38.4821V33.8891ZM31.631 33.8891H35.7417V31.4H31.631V33.8891ZM53.9229 33.8891H56.6634V31.4H53.9229V33.8891ZM45.3337 33.8891H51.1825V31.4H45.3337V33.8891ZM20.3682 33.8891H28.8905V31.4H20.3679V33.8891H20.3682ZM35.8753 14.2799H38.3485V10.0084H35.8753V14.2799ZM52.0175 24.3032H51.1822V31.4H53.9226V21.2758C53.9559 18.7532 52.1511 17.0714 49.4107 17.0714H42.7934V19.493H49.0098C50.4133 19.4595 51.3157 20.1657 51.3157 21.3093C51.2824 22.5538 50.5136 23.0247 48.4749 23.6974L46.6702 24.3027C43.7961 25.2444 42.5928 26.8928 42.5928 29.1798V31.3996H45.3332V29.6168C45.3332 28.0695 45.9348 27.3971 47.9734 26.5895L49.7782 25.8832C50.6473 25.5469 51.4493 25.1095 52.0175 24.3023V24.3032ZM35.7413 31.4H38.4818V17.0714H35.7413V31.4ZM28.8902 31.4H31.6306V29.0793C31.6306 26.7587 30.394 25.3122 27.3526 24.3032L25.5479 23.6978C23.5425 23.0251 22.7404 22.6216 22.7404 21.2762C22.7404 20.2336 23.7098 19.4934 24.946 19.4934H31.4296V17.0718H24.5455C21.972 17.0718 20.1006 18.6527 20.1006 21.2426C20.1006 23.8326 21.4709 25.0771 24.245 26.0189L26.0498 26.6241C28.523 27.4648 28.8905 28.0031 28.8905 29.6176V31.4004L28.8902 31.4Z" fill="#1D2609"/>
</g>
<defs>
<clipPath id="clip0_2708_28">
<rect width="42" height="24" fill="white" transform="translate(20 10)"/>
</clipPath>
</defs>
</svg>